<svg width="256" height="256" viewBox="0 0 256 256" fill="none" xmlns="http://www.w3.org/2000/svg">
<g clip-path="url(#clip0_108_2)">
<path fill-rule="evenodd" clip-rule="evenodd" d="M238.321 -16.053L17.3214 58.947L17 58L238 -17L238.321 -16.053ZM17.3214 88.947L238.321 13.947L238 13L17 88L17.3214 88.947ZM238.321 41.947L17.3214 116.947L17 116L238 41L238.321 41.947ZM238.321 56.947L17.3214 131.947L17 131L238 56L238.321 56.947ZM17.3214 159.947L238.321 84.947L238 84L17 159L17.3214 159.947ZM238.321 114.947L17.3214 189.947L17 189L238 114L238.321 114.947ZM17.3214 219.947L238.321 144.947L238 144L17 219L17.3214 219.947ZM238.321 174.947L17.3214 249.947L17 249L238 174L238.321 174.947ZM17.3214 146.947L238.321 71.947L238 71L17 146L17.3214 146.947ZM238.321 99.947L17.3214 174.947L17 174L238 99L238.321 99.947ZM17.3214 204.947L238.321 129.947L238 129L17 204L17.3214 204.947ZM238.321 159.947L17.3214 234.947L17 234L238 159L238.321 159.947ZM17.3214 264.947L238.321 189.947L238 189L17 264L17.3214 264.947ZM238.321 28.947L17.3214 103.947L17 103L238 28L238.321 28.947ZM17.3214 73.947L238.321 -1.05304L238 -2L17 73L17.3214 73.947Z" fill="black"/>
<path fill-rule="evenodd" clip-rule="evenodd" d="M255.356 290.885L237.587 19.4533L238.585 19.3879L256.354 290.82L255.356 290.885ZM203.812 10.4033L221.582 281.835L222.579 281.77L204.81 10.3379L203.812 10.4033ZM190.059 273.389L172.289 1.95666L173.287 1.89133L191.056 273.323L190.059 273.389ZM173.171 268.864L155.402 -2.56821L156.4 -2.63353L174.169 268.799L173.171 268.864ZM123.879 -11.0148L141.648 260.417L142.646 260.352L124.877 -11.0801L123.879 -11.0148ZM107.874 251.367L90.1043 -20.0648L91.1022 -20.1301L108.871 251.302L107.874 251.367ZM56.3293 -29.1147L74.0985 242.317L75.0963 242.252L57.3272 -29.18L56.3293 -29.1147ZM40.324 233.267L22.5549 -38.1645L23.5527 -38.2299L41.3219 233.202L40.324 233.267ZM138.515 -7.09321L156.284 264.339L157.282 264.274L139.513 -7.15853L138.515 -7.09321ZM124.761 255.892L106.992 -15.5398L107.989 -15.6051L125.759 255.827L124.761 255.892ZM73.2171 -24.5897L90.9863 246.842L91.9841 246.777L74.215 -24.655L73.2171 -24.5897ZM57.2112 237.792L39.4421 -33.6397L40.4399 -33.705L58.2091 237.727L57.2112 237.792ZM5.66762 -42.6895L23.4368 228.742L24.4346 228.677L6.66549 -42.7549L5.66762 -42.6895ZM204.694 277.31L186.925 5.8784L187.923 5.81307L205.692 277.245L204.694 277.31ZM220.7 14.9283L238.469 286.36L239.467 286.295L221.698 14.8629L220.7 14.9283Z" fill="white"/>
<path fill-rule="evenodd" clip-rule="evenodd" d="M110.5 16L133.45 38.5H123V45H126H131V45.2174C151.839 47.0419 168 60.128 168 76C168 91.872 151.839 104.958 131 106.783V107.039C131.663 107.013 132.33 107 133 107C160.062 107 182 128.266 182 154.5C182 180.734 160.062 202 133 202C132.33 202 131.663 201.987 131 201.961V202H123V206.5H136.048L110.5 229L84.9521 206.5H97.9999V202V187.743V121.257V99.1064V52.8936V45V38.5H87.5502L110.5 16ZM125 89.9608C125.547 89.9868 126.1 90 126.657 90C139.013 90 149.029 83.5081 149.029 75.5C149.029 67.4919 139.013 61 126.657 61C126.1 61 125.547 61.0132 125 61.0392V89.9608ZM127.343 179C126.555 179 125.774 178.98 125 178.942V136.058C125.774 136.02 126.555 136 127.343 136C144.811 136 158.971 145.626 158.971 157.5C158.971 169.374 144.811 179 127.343 179Z" fill="url(#paint0_linear_108_2)"/>
</g>
<defs>
<linearGradient id="paint0_linear_108_2" x1="77" y1="16" x2="164.5" y2="225" gradientUnits="userSpaceOnUse">
<stop stop-color="#2D5DBA"/>
<stop offset="1" stop-color="#8F00FF"/>
</linearGradient>
<clipPath id="clip0_108_2">
<rect width="256" height="256" fill="white"/>
</clipPath>
</defs>
</svg>
